<?xml version="1.0" standalone="no"?>
<!DOCTYPE svg PUBLIC "-//W3C//DTD SVG 20010904//EN"
 "http://www.w3.org/TR/2001/REC-SVG-20010904/DTD/svg10.dtd">
<svg version="1.0" xmlns="http://www.w3.org/2000/svg"
 width="1280.000000pt" height="938.000000pt" viewBox="0 0 1280.000000 938.000000"
 preserveAspectRatio="xMidYMid meet">

<g transform="translate(0.000000,938.000000) scale(0.100000,-0.100000)"
fill="#000000" stroke="none">
<path d="M2 4688 l3 -4693 2 4688 3 4687 6390 0 6390 0 3 -4687 2 -4688 3
4693 2 4692 -6400 0 -6400 0 2 -4692z"/>
<path d="M2010 6939 l0 -510 43 3 42 3 1 465 2 465 4302 0 4301 0 2 -465 2
-465 43 -3 42 -3 0 510 0 511 -4390 0 -4390 0 0 -511z"/>
<path d="M6903 6105 c-187 -52 -362 -165 -539 -346 -112 -115 -134 -140 -216
-254 -177 -246 -297 -508 -360 -783 -31 -136 -33 -398 -3 -486 52 -152 188
-213 329 -146 76 37 192 152 531 530 82 92 281 292 299 302 18 10 19 7 13 -34
-13 -94 -118 -366 -156 -405 -15 -15 -56 -46 -92 -67 -141 -87 -386 -284 -504
-405 -122 -125 -225 -290 -225 -361 0 -82 102 -122 221 -86 104 32 232 113
335 212 158 152 331 417 425 651 l32 82 111 50 c202 90 265 109 251 74 -3 -10
-13 -45 -21 -78 -38 -161 8 -291 121 -344 87 -41 159 -20 240 71 25 29 60 79
76 111 27 53 32 57 64 57 42 0 108 21 200 65 38 18 71 32 73 30 2 -1 -7 -40
-18 -86 -28 -107 -38 -233 -20 -254 17 -20 53 -19 72 3 9 9 64 89 123 177 128
189 191 270 273 348 52 49 91 73 80 50 -2 -5 -20 -42 -39 -83 -74 -152 -87
-257 -38 -287 31 -19 26 -22 151 87 74 64 223 158 234 147 3 -3 -8 -45 -25
-94 -17 -48 -36 -120 -42 -159 -26 -152 46 -255 158 -225 40 11 190 128 268
210 21 22 42 41 46 41 4 0 10 -19 14 -42 20 -119 92 -188 196 -188 75 0 235
103 399 257 75 70 82 74 87 53 3 -12 17 -43 29 -69 13 -25 24 -50 24 -56 0 -5
-21 -23 -48 -39 -116 -73 -254 -197 -313 -282 -16 -23 -34 -62 -41 -87 -10
-39 -9 -48 6 -72 23 -35 89 -65 145 -65 162 -1 392 138 434 263 14 42 14 52 1
95 -8 26 -30 76 -49 112 -42 77 -48 67 96 140 138 70 266 121 409 165 167 50
292 98 490 189 91 42 170 76 175 76 6 0 19 -21 30 -47 90 -213 134 -262 325
-357 140 -70 177 -93 221 -133 15 -14 29 -21 32 -16 19 32 -93 285 -166 374
-93 114 -185 161 -317 163 -143 2 -115 33 88 103 189 64 359 54 475 -26 50
-34 79 -68 124 -146 47 -81 62 -129 89 -283 38 -228 80 -356 132 -412 36 -39
44 -30 47 55 1 44 10 111 19 148 21 88 21 263 1 341 -45 172 -157 284 -302
302 -26 3 -59 14 -73 23 -184 128 -350 123 -694 -21 -65 -27 -120 -47 -123
-45 -2 3 19 38 46 79 28 41 51 80 51 86 0 7 13 12 29 12 125 0 288 165 469
477 23 39 42 76 42 82 0 32 -187 -4 -288 -55 -93 -47 -162 -116 -203 -200 -30
-65 -58 -184 -59 -255 0 -39 -46 -122 -118 -214 -39 -50 -56 -61 -190 -126
-192 -93 -214 -101 -376 -143 -158 -41 -218 -64 -405 -153 -74 -34 -136 -63
-137 -63 -10 0 -2 95 10 125 18 43 86 117 154 167 60 45 64 64 24 109 -23 25
-38 33 -78 36 -43 4 -55 1 -99 -29 -61 -40 -131 -140 -140 -200 -7 -40 -15
-50 -119 -135 -148 -122 -184 -148 -284 -200 -59 -31 -94 -43 -116 -41 -29 3
-31 5 -30 44 0 24 18 83 40 138 l39 96 41 0 c52 0 96 29 142 93 38 53 52 121
30 147 -46 55 -125 68 -193 33 -62 -33 -141 -119 -185 -204 -33 -64 -61 -97
-164 -195 -109 -105 -192 -169 -248 -190 -31 -11 -21 46 38 222 60 181 62 208
17 244 -57 45 -95 38 -228 -40 -44 -27 -82 -47 -84 -45 -1 2 11 38 28 81 38
94 41 152 9 181 -40 36 -65 45 -90 32 -68 -36 -221 -175 -306 -277 -19 -23
-37 -40 -40 -37 -3 2 0 10 5 17 26 33 73 129 73 150 0 25 -43 60 -97 78 -49
18 -69 0 -120 -106 -53 -109 -70 -122 -224 -180 -102 -39 -135 -43 -124 -17
32 85 32 231 0 275 -42 55 -115 88 -169 74 -14 -3 -42 -21 -62 -38 -33 -29
-38 -31 -68 -20 -18 7 -42 12 -53 12 -22 0 -63 -42 -88 -91 -11 -20 -27 -31
-58 -39 -23 -6 -103 -30 -177 -54 -74 -24 -136 -43 -137 -42 -1 1 4 26 13 56
23 86 30 228 12 270 -18 42 -73 76 -110 67 -33 -9 -210 -185 -370 -369 -55
-64 -235 -256 -318 -339 -135 -136 -235 -195 -298 -175 -67 22 -70 270 -7 516
95 370 321 774 595 1063 92 97 224 204 297 242 21 10 45 24 53 31 8 7 50 24
92 39 61 22 90 26 133 23 83 -7 99 -27 103 -132 6 -131 -56 -331 -138 -451
-17 -25 -28 -50 -25 -55 24 -39 107 33 154 133 51 109 72 195 78 308 5 102 4
108 -22 152 -51 88 -132 135 -243 143 -41 2 -87 -2 -119 -11z m4894 -536 c-59
-39 -231 -218 -309 -323 -84 -112 -81 -110 -74 -37 15 137 82 245 192 311 62
38 174 79 213 80 21 0 18 -4 -22 -31z m0 -122 c-42 -62 -87 -125 -102 -142
-14 -16 -43 -50 -64 -75 -21 -25 -56 -58 -79 -74 -44 -30 -112 -57 -125 -49
-16 10 142 210 260 329 80 79 175 149 181 133 2 -5 -30 -60 -71 -122z m490
-577 c44 -22 72 -45 100 -83 48 -65 60 -92 78 -179 21 -97 19 -194 -7 -328
-26 -141 -33 -125 -42 95 -3 83 -10 176 -15 207 -15 86 -58 163 -137 245 -79
81 -73 91 23 43z m-31 -73 c87 -93 114 -148 125 -260 10 -101 27 -370 23 -375
-1 -2 -10 10 -19 28 -23 44 -51 161 -76 309 -24 150 -37 193 -90 289 -22 39
-35 72 -30 72 5 0 35 -28 67 -63z m-4472 18 c25 -25 39 -93 31 -153 -7 -53
-51 -172 -64 -172 -3 0 -23 5 -43 10 -55 16 -88 63 -88 129 0 82 32 143 95
182 37 23 49 24 69 4z m3889 -29 c68 -33 160 -129 204 -211 38 -73 76 -168 65
-163 -4 1 -44 44 -89 93 -130 146 -221 226 -308 273 l-80 43 77 -4 c57 -3 90
-11 131 -31z m-119 -48 c44 -23 98 -69 194 -166 74 -73 132 -135 130 -137 -2
-2 -63 25 -136 61 -109 54 -140 75 -182 121 -48 52 -90 119 -90 143 0 17 19
12 84 -22z m-1844 -27 c0 -42 -79 -141 -112 -141 -19 0 -19 1 3 33 63 91 109
137 109 108z m-2119 -171 c21 -24 55 -49 87 -62 28 -12 52 -25 52 -30 0 -16
-52 -93 -89 -131 -20 -21 -53 -48 -74 -58 -94 -49 -127 4 -90 145 24 92 58
176 71 176 5 0 24 -18 43 -40z m-877 -232 c-28 -55 -203 -317 -279 -418 -143
-189 -273 -300 -352 -300 -31 0 -33 2 -33 38 0 85 89 220 241 367 139 134 424
363 436 351 3 -2 -3 -19 -13 -38z m3423 -25 c35 -84 10 -150 -93 -249 -99 -95
-206 -154 -280 -154 -32 0 -34 2 -34 35 0 49 22 89 105 193 38 47 249 211 273
212 7 0 20 -17 29 -37z"/>
<path d="M3013 5933 c-39 -71 -90 -164 -113 -208 -23 -44 -57 -107 -75 -140
-18 -33 -51 -96 -75 -140 -92 -173 -147 -266 -248 -418 -57 -86 -108 -159
-112 -162 -5 -3 -88 -25 -185 -50 -241 -61 -488 -145 -625 -213 -118 -58 -141
-82 -106 -108 13 -9 43 -1 159 46 172 70 440 163 547 190 43 11 86 23 94 26
31 12 16 -21 -36 -81 -92 -106 -310 -318 -413 -400 -318 -255 -643 -394 -921
-395 -135 0 -189 17 -243 76 -64 68 -81 113 -81 216 0 94 15 174 55 283 57
156 175 352 299 495 211 245 596 439 775 390 44 -11 68 -31 107 -85 27 -37 41
-27 20 13 -18 35 -63 75 -120 105 -54 28 -202 30 -291 3 -191 -59 -390 -178
-533 -319 -218 -213 -392 -576 -396 -822 -3 -204 122 -353 320 -385 129 -21
337 10 507 74 335 126 722 431 1047 824 33 40 40 43 130 61 52 11 97 18 99 16
1 -2 -11 -61 -28 -132 -55 -228 -80 -447 -61 -538 13 -64 43 -100 91 -110 72
-16 85 11 94 200 9 183 46 482 73 580 l9 30 116 0 c115 0 116 0 97 19 -15 15
-39 21 -104 25 -46 3 -87 9 -91 12 -10 10 76 350 159 629 49 166 99 310 148
427 30 74 30 93 -1 93 -12 0 -39 -38 -88 -127z m-313 -823 c-39 -113 -74 -208
-78 -212 -4 -4 -38 -10 -76 -14 -58 -6 -68 -5 -60 7 4 8 55 84 112 169 57 85
118 182 135 215 16 33 32 56 34 50 1 -5 -29 -102 -67 -215z"/>
<path d="M3081 4794 c-81 -68 -192 -292 -225 -456 -20 -99 -20 -128 2 -144 34
-26 58 -16 103 44 88 117 241 293 306 351 78 69 171 136 204 146 19 6 21 5 14
-11 -4 -11 -26 -71 -48 -134 -34 -98 -40 -128 -41 -205 -1 -77 2 -96 22 -131
26 -44 93 -94 127 -94 73 0 137 39 253 152 l72 71 0 -61 c0 -54 4 -65 30 -96
44 -49 90 -63 144 -42 40 15 155 122 246 228 18 21 35 36 40 33 4 -2 10 -25
13 -50 5 -52 34 -90 84 -111 75 -32 131 -5 262 129 143 146 216 236 204 248
-12 12 -39 -10 -158 -123 -128 -121 -207 -185 -257 -206 -28 -12 -28 -12 -28
31 0 23 19 100 42 170 l43 129 -28 24 c-35 30 -42 30 -72 -2 l-25 -27 -6 32
c-9 41 -74 98 -123 106 -21 3 -58 1 -83 -5 -83 -21 -206 -138 -264 -251 -53
-105 -357 -345 -411 -325 -24 10 -11 114 28 217 62 164 88 244 89 267 0 36
-27 80 -62 98 -30 15 -34 15 -87 -7 -72 -29 -188 -109 -288 -199 -25 -22 -48
-39 -50 -36 -3 2 11 29 30 59 79 123 81 142 16 182 -49 32 -80 31 -118 -1z
m1262 -156 l5 -73 -77 -75 c-131 -129 -236 -220 -254 -220 -25 0 13 108 76
214 53 90 186 226 220 226 24 0 25 -4 30 -72z"/>
<path d="M2012 2545 l3 -695 1180 0 1180 0 3 40 3 40 -1143 0 -1143 0 3 632
c1 348 0 643 -3 656 -4 18 -12 22 -45 22 l-40 0 2 -695z"/>
<path d="M10705 3218 c-3 -13 -4 -308 -3 -656 l3 -632 -378 0 -378 0 3 -40 3
-41 415 0 415 1 3 695 2 695 -40 0 c-33 0 -41 -4 -45 -22z"/>
<path d="M8226 2145 c-20 -30 -20 -35 -2 -35 8 0 24 14 36 30 21 29 21 30 2
30 -11 0 -27 -11 -36 -25z"/>
<path d="M4820 1911 l0 -181 78 0 c102 0 155 26 190 91 47 88 11 210 -72 244
-17 7 -68 16 -113 20 l-83 7 0 -181z m177 120 c49 -23 73 -62 73 -120 0 -91
-53 -143 -149 -145 l-56 -1 -3 143 -3 142 48 0 c27 0 67 -9 90 -19z"/>
<path d="M5195 2077 c-3 -7 -4 -87 -3 -177 l3 -165 113 -3 c94 -2 112 0 112
12 0 12 -18 16 -92 18 l-93 3 -3 63 -3 62 81 0 c73 0 80 2 80 20 0 18 -7 20
-80 20 l-81 0 3 58 3 57 88 3 c77 2 88 5 85 20 -3 14 -18 17 -106 20 -78 2
-104 0 -107 -11z"/>
<path d="M5545 2078 c-34 -19 -55 -52 -55 -90 0 -46 37 -80 107 -97 26 -7 56
-20 66 -28 23 -22 22 -58 -4 -84 -19 -19 -30 -21 -95 -17 -57 4 -74 2 -74 -8
0 -20 34 -34 84 -34 88 0 146 40 146 100 0 55 -28 84 -102 104 -66 19 -88 36
-88 71 0 49 66 72 148 52 26 -7 32 -6 32 7 0 8 -9 20 -19 26 -26 13 -121 12
-146 -2z"/>
<path d="M5813 2083 c-10 -3 -13 -49 -13 -180 l0 -174 23 3 c22 3 22 5 23 168
2 192 1 197 -33 183z"/>
<path d="M6030 2072 c-19 -11 -48 -36 -65 -56 -28 -35 -30 -44 -30 -114 0 -65
4 -82 24 -111 13 -18 42 -42 65 -52 45 -20 129 -25 170 -9 25 9 26 12 26 95
l0 85 -60 0 c-53 0 -60 -2 -60 -20 0 -17 7 -20 40 -20 l40 0 0 -55 0 -55 -62
0 c-104 1 -148 43 -148 140 0 103 56 154 168 152 54 0 63 2 60 16 -5 26 -122
29 -168 4z"/>
<path d="M6317 2083 c-4 -3 -7 -84 -7 -180 0 -166 1 -173 20 -173 18 0 20 8
22 145 l3 146 100 -145 c78 -114 105 -146 123 -146 22 0 22 0 22 174 0 165 -1
174 -20 179 -19 5 -20 0 -20 -145 l0 -151 -101 144 c-111 158 -123 171 -142
152z"/>
<path d="M7195 2077 c-3 -7 -4 -87 -3 -177 l3 -165 113 -3 c94 -2 112 0 112
12 0 12 -18 16 -92 18 l-93 3 0 60 0 60 78 3 c69 3 77 5 77 22 0 18 -7 20 -77
20 l-78 0 0 58 0 57 88 3 c77 2 88 5 85 20 -3 14 -18 17 -106 20 -78 2 -104 0
-107 -11z"/>
<path d="M7541 2076 c-29 -16 -50 -52 -51 -87 0 -43 35 -77 98 -95 31 -9 65
-23 75 -32 23 -21 22 -57 -4 -83 -19 -19 -30 -21 -95 -17 -58 4 -74 2 -74 -9
0 -30 117 -46 163 -22 48 25 67 51 67 94 0 53 -26 78 -105 100 -64 18 -85 36
-85 70 0 49 66 72 148 52 26 -7 32 -6 32 7 0 8 -9 20 -19 26 -27 14 -121 12
-150 -4z"/>
<path d="M7777 2083 c-4 -3 -7 -12 -7 -20 0 -9 17 -13 60 -13 l60 0 0 -160 c0
-153 1 -160 20 -160 19 0 20 7 20 160 l0 160 60 0 c53 0 60 2 60 20 0 19 -7
20 -133 20 -74 0 -137 -3 -140 -7z"/>
<path d="M8117 2084 c-4 -4 -7 -85 -7 -181 l0 -173 115 0 c94 0 115 3 115 15
0 11 -19 15 -92 17 l-93 3 -3 63 -3 62 81 0 c73 0 80 2 80 20 0 18 -7 20 -80
20 l-81 0 3 58 3 57 88 3 c77 2 88 5 85 20 -3 14 -18 17 -104 20 -55 1 -103 0
-107 -4z"/>
<path d="M8387 2083 c-4 -3 -7 -12 -7 -20 0 -9 17 -13 60 -13 l60 0 0 -160 0
-160 25 0 25 0 0 160 0 160 55 0 c48 0 55 2 55 20 0 19 -7 20 -133 20 -74 0
-137 -3 -140 -7z"/>
<path d="M8729 2082 c0 -4 -1 -85 -2 -179 -2 -156 0 -173 15 -173 26 0 30 28
27 194 -2 140 -4 155 -21 159 -10 3 -18 2 -19 -1z"/>
<path d="M8954 2076 c-133 -58 -142 -269 -14 -333 63 -32 170 -31 170 2 0 9
-23 14 -76 17 -73 3 -77 5 -110 41 -30 33 -34 43 -34 92 0 107 51 159 156 157
48 -1 64 2 64 12 0 8 -7 17 -16 20 -27 10 -108 6 -140 -8z"/>
<path d="M9296 2075 c-9 -9 -16 -21 -16 -27 0 -6 -27 -76 -60 -155 -33 -80
-60 -149 -60 -154 0 -5 8 -9 19 -9 13 0 24 15 38 53 l20 52 79 0 78 0 21 -52
c15 -41 25 -53 41 -53 20 0 17 12 -50 177 -39 97 -77 178 -83 180 -6 2 -18 -3
-27 -12z m49 -112 c10 -32 22 -62 27 -67 17 -21 6 -26 -52 -26 -33 0 -60 4
-60 9 0 8 17 57 39 114 6 15 14 27 19 27 4 0 16 -26 27 -57z"/>
<path d="M6850 1968 c-43 -29 -60 -61 -60 -115 0 -59 14 -90 52 -113 47 -29
148 -25 148 6 0 9 -17 13 -60 13 -34 0 -67 5 -75 11 -16 13 -36 66 -28 74 4 3
44 6 90 6 l83 0 0 35 c0 24 -9 44 -27 65 -39 42 -79 48 -123 18z m94 -34 c9
-8 16 -24 16 -35 0 -17 -7 -19 -65 -19 -70 0 -78 7 -49 48 18 26 74 30 98 6z"/>
</g>
</svg>
